<svg width="24" height="24" viewBox="0 0 24 24" fill="none" xmlns="http://www.w3.org/2000/svg">
<mask id="path-1-inside-1_443_1622" fill="white">
<path d="M13 11.8016C12.0575 11.8016 11.2503 11.4683 10.5783 10.8016C9.90629 10.1349 9.57067 9.33449 9.57143 8.40025C9.57219 7.46601 9.90781 6.66481 10.5783 5.99663C11.2488 5.32845 12.056 4.99625 13 5.00003C13.944 5.00381 14.7512 5.33639 15.4217 5.99776C16.0922 6.65914 16.4278 7.46034 16.4286 8.40139C16.4293 9.34243 16.0937 10.1429 15.4217 10.8027C14.7497 11.4626 13.9425 11.7948 13 11.8016ZM5 18.8231V18.1338C5 17.6659 5.13714 17.2283 5.41143 16.8209C5.68648 16.4127 6.056 16.096 6.52 15.8708C7.59886 15.3575 8.67848 14.9728 9.75886 14.7166C10.8385 14.4596 11.9189 14.3311 13 14.3311C14.0811 14.3311 15.1619 14.4596 16.2423 14.7166C17.3227 14.9736 18.4015 15.3583 19.4789 15.8708C19.9436 16.096 20.3131 16.4127 20.5874 16.8209C20.8625 17.2283 21 17.6659 21 18.1338V18.8231C21 19.1557 20.8861 19.4354 20.6583 19.6621C20.4305 19.8874 20.1486 20 19.8126 20H6.18857C5.85257 20 5.57067 19.887 5.34286 19.661C5.11505 19.435 5.00076 19.1565 5 18.8231ZM6.14286 18.8662H19.8571V18.1327C19.8571 17.8817 19.7752 17.6455 19.6114 17.424C19.4484 17.2033 19.2225 17.0166 18.9337 16.864C17.9935 16.412 17.0236 16.0658 16.024 15.8254C15.0244 15.585 14.0164 15.4649 13 15.4649C11.9836 15.4649 10.9756 15.585 9.976 15.8254C8.97638 16.0658 8.00648 16.412 7.06629 16.864C6.77676 17.0166 6.55086 17.2033 6.38857 17.424C6.22476 17.6455 6.14286 17.8821 6.14286 18.1338V18.8662ZM13 10.6678C13.6286 10.6678 14.1669 10.4456 14.6149 10.0012C15.0629 9.55671 15.2865 9.0227 15.2857 8.39912C15.285 7.77554 15.0613 7.2419 14.6149 6.79821C14.1684 6.35453 13.6301 6.1323 13 6.13155C12.3699 6.13079 11.832 6.35301 11.3863 6.79821C10.9406 7.24341 10.7166 7.77705 10.7143 8.39912C10.712 9.02119 10.936 9.5552 11.3863 10.0012C11.8366 10.4471 12.3745 10.669 13 10.6667"/>
</mask>
<path d="M13 11.8016C12.0575 11.8016 11.2503 11.4683 10.5783 10.8016C9.90629 10.1349 9.57067 9.33449 9.57143 8.40025C9.57219 7.46601 9.90781 6.66481 10.5783 5.99663C11.2488 5.32845 12.056 4.99625 13 5.00003C13.944 5.00381 14.7512 5.33639 15.4217 5.99776C16.0922 6.65914 16.4278 7.46034 16.4286 8.40139C16.4293 9.34243 16.0937 10.1429 15.4217 10.8027C14.7497 11.4626 13.9425 11.7948 13 11.8016ZM5 18.8231V18.1338C5 17.6659 5.13714 17.2283 5.41143 16.8209C5.68648 16.4127 6.056 16.096 6.52 15.8708C7.59886 15.3575 8.67848 14.9728 9.75886 14.7166C10.8385 14.4596 11.9189 14.3311 13 14.3311C14.0811 14.3311 15.1619 14.4596 16.2423 14.7166C17.3227 14.9736 18.4015 15.3583 19.4789 15.8708C19.9436 16.096 20.3131 16.4127 20.5874 16.8209C20.8625 17.2283 21 17.6659 21 18.1338V18.8231C21 19.1557 20.8861 19.4354 20.6583 19.6621C20.4305 19.8874 20.1486 20 19.8126 20H6.18857C5.85257 20 5.57067 19.887 5.34286 19.661C5.11505 19.435 5.00076 19.1565 5 18.8231ZM6.14286 18.8662H19.8571V18.1327C19.8571 17.8817 19.7752 17.6455 19.6114 17.424C19.4484 17.2033 19.2225 17.0166 18.9337 16.864C17.9935 16.412 17.0236 16.0658 16.024 15.8254C15.0244 15.585 14.0164 15.4649 13 15.4649C11.9836 15.4649 10.9756 15.585 9.976 15.8254C8.97638 16.0658 8.00648 16.412 7.06629 16.864C6.77676 17.0166 6.55086 17.2033 6.38857 17.424C6.22476 17.6455 6.14286 17.8821 6.14286 18.1338V18.8662ZM13 10.6678C13.6286 10.6678 14.1669 10.4456 14.6149 10.0012C15.0629 9.55671 15.2865 9.0227 15.2857 8.39912C15.285 7.77554 15.0613 7.2419 14.6149 6.79821C14.1684 6.35453 13.6301 6.1323 13 6.13155C12.3699 6.13079 11.832 6.35301 11.3863 6.79821C10.9406 7.24341 10.7166 7.77705 10.7143 8.39912C10.712 9.02119 10.936 9.5552 11.3863 10.0012C11.8366 10.4471 12.3745 10.669 13 10.6667" fill="#050E2C"/>
<path d="M13 11.8016V14.8016H13.0108L13.0217 14.8015L13 11.8016ZM5 18.8231H1.99999L2.00001 18.83L5 18.8231ZM5.41143 16.8209L2.92358 15.1444L2.92286 15.1454L5.41143 16.8209ZM6.52 15.8708L5.23125 13.1617L5.22055 13.1668L5.20988 13.1719L6.52 15.8708ZM9.75886 14.7166L10.4512 17.6356L10.4536 17.635L9.75886 14.7166ZM19.4789 15.8708L20.7872 13.1711L20.7774 13.1663L20.7675 13.1616L19.4789 15.8708ZM20.5874 16.8209L18.0974 18.4942L18.101 18.4995L20.5874 16.8209ZM20.6583 19.6621L22.7676 21.7954L22.7747 21.7884L20.6583 19.6621ZM6.14286 18.8662H3.14286V21.8662H6.14286V18.8662ZM19.8571 18.8662V21.8662H22.8571V18.8662H19.8571ZM19.6114 17.424L17.1985 19.2066L17.1995 19.208L19.6114 17.424ZM18.9337 16.864L20.336 14.2119L20.2853 14.185L20.2336 14.1602L18.9337 16.864ZM7.06629 16.864L5.76643 14.1602L5.71619 14.1843L5.66688 14.2103L7.06629 16.864ZM6.38857 17.424L8.8005 19.208L8.80553 19.2012L6.38857 17.424ZM13 11.8016V8.80161C12.8902 8.80161 12.8453 8.78391 12.8327 8.77871C12.8199 8.77341 12.773 8.75304 12.6911 8.67185L10.5783 10.8016L8.46544 12.9314C9.69659 14.1527 11.2621 14.8016 13 14.8016V11.8016ZM10.5783 10.8016L12.6911 8.67185C12.6091 8.59047 12.5915 8.54679 12.5892 8.54125C12.5872 8.53651 12.5713 8.50147 12.5714 8.4027L9.57143 8.40025L6.57143 8.39781C6.57001 10.1445 7.2335 11.7092 8.46544 12.9314L10.5783 10.8016ZM9.57143 8.40025L12.5714 8.4027C12.5715 8.30244 12.5877 8.26508 12.5908 8.25776C12.5942 8.24964 12.6131 8.20415 12.696 8.12159L10.5783 5.99663L8.46061 3.87167C7.23427 5.09381 6.57285 6.65524 6.57143 8.39781L9.57143 8.40025ZM10.5783 5.99663L12.696 8.12159C12.7755 8.04232 12.8193 8.0243 12.8283 8.02061C12.837 8.017 12.8792 7.99957 12.988 8.00001L13 5.00003L13.012 2.00006C11.2676 1.99307 9.69462 2.64189 8.46061 3.87167L10.5783 5.99663ZM13 5.00003L12.988 8.00001C13.1038 8.00047 13.154 8.01927 13.1706 8.02611C13.1871 8.0329 13.2346 8.05432 13.3149 8.13353L15.4217 5.99776L17.5285 3.86199C16.2981 2.64832 14.7383 2.00697 13.012 2.00006L13 5.00003ZM15.4217 5.99776L13.3149 8.13353C13.3916 8.20919 13.4073 8.24905 13.4092 8.25379C13.4112 8.25848 13.4285 8.29709 13.4286 8.40381L16.4286 8.40139L19.4286 8.39896C19.4272 6.65529 18.7694 5.08602 17.5285 3.86199L15.4217 5.99776ZM16.4286 8.40139L13.4286 8.40381C13.4287 8.50908 13.4117 8.54538 13.4108 8.54749C13.4099 8.54964 13.3957 8.58769 13.3198 8.66218L15.4217 10.8027L17.5236 12.9433C18.7702 11.7193 19.43 10.1467 19.4286 8.39896L16.4286 8.40139ZM15.4217 10.8027L13.3198 8.66218C13.2381 8.74241 13.1884 8.76545 13.1689 8.77349C13.1492 8.78162 13.0961 8.80083 12.9783 8.80168L13 11.8016L13.0217 14.8015C14.7396 14.7891 16.2937 14.151 17.5236 12.9433L15.4217 10.8027ZM5 18.8231H8V18.1338H5H2V18.8231H5ZM5 18.1338H8C8 18.1979 7.98984 18.2744 7.96559 18.3517C7.94171 18.4279 7.91303 18.4769 7.89999 18.4963L5.41143 16.8209L2.92286 15.1454C2.33272 16.022 2 17.0384 2 18.1338H5ZM5.41143 16.8209L7.89928 18.4974C7.88784 18.5143 7.86944 18.536 7.84712 18.5551C7.82544 18.5737 7.81552 18.5767 7.83012 18.5696L6.52 15.8708L5.20988 13.1719C4.2938 13.6167 3.50863 14.2762 2.92358 15.1444L5.41143 16.8209ZM6.52 15.8708L7.80875 18.5798C8.71109 18.1506 9.59134 17.8395 10.4512 17.6356L9.75886 14.7166L9.06655 11.7975C7.76561 12.1061 6.48663 12.5645 5.23125 13.1617L6.52 15.8708ZM9.75886 14.7166L10.4536 17.635C11.3116 17.4308 12.159 17.3311 13 17.3311V14.3311V11.3311C11.6788 11.3311 10.3653 11.4884 9.06415 11.7981L9.75886 14.7166ZM13 14.3311V17.3311C13.8411 17.3311 14.6889 17.4308 15.548 17.6351L16.2423 14.7166L16.9365 11.798C15.6349 11.4884 14.3212 11.3311 13 11.3311V14.3311ZM16.2423 14.7166L15.548 17.6351C16.4089 17.8399 17.2891 18.1512 18.1902 18.5799L19.4789 15.8708L20.7675 13.1616C19.5139 12.5653 18.2364 12.1072 16.9365 11.798L16.2423 14.7166ZM19.4789 15.8708L18.1705 18.5704C18.1852 18.5775 18.1748 18.5743 18.1523 18.5551C18.1292 18.5353 18.1098 18.5126 18.0974 18.4942L20.5874 16.8209L23.0774 15.1476C22.4919 14.2763 21.7048 13.6158 20.7872 13.1711L19.4789 15.8708ZM20.5874 16.8209L18.101 18.4995C18.0879 18.4801 18.059 18.4308 18.0348 18.354C18.0103 18.276 18 18.1988 18 18.1338H21H24C24 17.0365 23.6657 16.019 23.0738 15.1422L20.5874 16.8209ZM21 18.1338H18V18.8231H21H24V18.1338H21ZM21 18.8231H18C18 18.6409 18.0326 18.405 18.1362 18.1507C18.2406 17.8944 18.3893 17.6878 18.5419 17.5359L20.6583 19.6621L22.7747 21.7884C23.5897 20.9771 24 19.9228 24 18.8231H21ZM20.6583 19.6621L18.549 17.5288C18.7042 17.3754 18.9112 17.2302 19.163 17.1296C19.4121 17.0301 19.6401 17 19.8126 17V20V23C20.8955 23 21.9484 22.6054 22.7676 21.7954L20.6583 19.6621ZM19.8126 20V17H6.18857V20V23H19.8126V20ZM6.18857 20V17C6.36229 17 6.59146 17.0305 6.84135 17.1306C7.09393 17.2319 7.30096 17.3777 7.45571 17.5312L5.34286 19.661L3.23001 21.7908C4.04847 22.6027 5.10251 23 6.18857 23V20ZM5.34286 19.661L7.45571 17.5312C7.60794 17.6823 7.75735 17.8886 7.86255 18.1455C7.96688 18.4003 7.99958 18.6359 7.99999 18.8163L5 18.8231L2.00001 18.83C2.00252 19.9294 2.4142 20.9814 3.23001 21.7908L5.34286 19.661ZM6.14286 18.8662V21.8662H19.8571V18.8662V15.8662H6.14286V18.8662ZM19.8571 18.8662H22.8571V18.1327H19.8571H16.8571V18.8662H19.8571ZM19.8571 18.1327H22.8571C22.8571 17.1763 22.5298 16.3247 22.0233 15.64L19.6114 17.424L17.1995 19.208C17.1191 19.0993 17.0294 18.9465 16.9613 18.7501C16.8922 18.5509 16.8571 18.3405 16.8571 18.1327H19.8571ZM19.6114 17.424L22.0244 15.6415C21.5478 14.9963 20.9477 14.5353 20.336 14.2119L18.9337 16.864L17.5314 19.516C17.4973 19.498 17.349 19.4104 17.1985 19.2066L19.6114 17.424ZM18.9337 16.864L20.2336 14.1602C19.1048 13.6175 17.9345 13.1993 16.7254 12.9085L16.024 15.8254L15.3226 18.7423C16.1128 18.9323 16.8822 19.2064 17.6339 19.5677L18.9337 16.864ZM16.024 15.8254L16.7254 12.9085C15.4987 12.6136 14.2554 12.4649 13 12.4649V15.4649V18.4649C13.7774 18.4649 14.55 18.5565 15.3226 18.7423L16.024 15.8254ZM13 15.4649V12.4649C11.7446 12.4649 10.5013 12.6136 9.27463 12.9085L9.976 15.8254L10.6774 18.7423C11.45 18.5565 12.2226 18.4649 13 18.4649V15.4649ZM9.976 15.8254L9.27463 12.9085C8.06551 13.1993 6.89519 13.6175 5.76643 14.1602L7.06629 16.864L8.36614 19.5677C9.11776 19.2064 9.88725 18.9323 10.6774 18.7423L9.976 15.8254ZM7.06629 16.864L5.66688 14.2103C5.05356 14.5338 4.44984 14.9965 3.97161 15.6469L6.38857 17.424L8.80553 19.2012C8.65187 19.4102 8.49996 19.4995 8.46569 19.5176L7.06629 16.864ZM6.38857 17.424L3.97665 15.64C3.46895 16.3264 3.14286 17.1786 3.14286 18.1338H6.14286H9.14286C9.14286 18.3402 9.10813 18.5499 9.0392 18.749C8.97122 18.9454 8.88146 19.0986 8.80049 19.208L6.38857 17.424ZM6.14286 18.1338H3.14286V18.8662H6.14286H9.14286V18.1338H6.14286ZM13 10.6678V13.6678C14.4236 13.6678 15.7203 13.1303 16.7277 12.1309L14.6149 10.0012L12.502 7.8714C12.5323 7.84137 12.6087 7.77839 12.7304 7.72816C12.8523 7.67784 12.953 7.66782 13 7.66782V10.6678ZM14.6149 10.0012L16.7277 12.1309C17.7367 11.1299 18.2875 9.83084 18.2857 8.39545L15.2857 8.39912L12.2857 8.40278C12.2856 8.34657 12.2975 8.23731 12.3514 8.10855C12.405 7.98051 12.4716 7.90158 12.502 7.8714L14.6149 10.0012ZM15.2857 8.39912L18.2857 8.39545C18.284 6.96584 17.7358 5.67024 16.7295 4.67026L14.6149 6.79821L12.5002 8.92617C12.4694 8.89552 12.4035 8.81703 12.3505 8.69067C12.2974 8.56374 12.2858 8.45672 12.2857 8.40278L15.2857 8.39912ZM14.6149 6.79821L16.7295 4.67026C15.7212 3.66825 14.4239 3.13325 13.0036 3.13155L13 6.13155L12.9964 9.13155C12.9522 9.13149 12.8531 9.12195 12.7315 9.07177C12.6099 9.02157 12.5323 8.9581 12.5002 8.92617L14.6149 6.79821ZM13 6.13155L13.0036 3.13155C11.5774 3.12984 10.2754 3.6676 9.26619 4.67567L11.3863 6.79821L13.5064 8.92076C13.4734 8.95366 13.3941 9.01887 13.2695 9.07035C13.1449 9.12183 13.0427 9.1316 12.9964 9.13155L13 6.13155ZM11.3863 6.79821L9.26619 4.67567C8.26781 5.6729 7.71954 6.96238 7.71431 8.38809L10.7143 8.39912L13.7143 8.41014C13.7141 8.46425 13.7022 8.56948 13.6502 8.69348C13.5984 8.81674 13.5347 8.89244 13.5064 8.92076L11.3863 6.79821ZM10.7143 8.39912L7.71431 8.38809C7.709 9.83148 8.26541 11.1326 9.27524 12.1327L11.3863 10.0012L13.4973 7.86961C13.5258 7.89778 13.5927 7.97613 13.647 8.10574C13.7019 8.23649 13.7145 8.34919 13.7143 8.41014L10.7143 8.39912ZM11.3863 10.0012L9.27524 12.1327C10.2816 13.1294 11.5793 13.6719 13.0109 13.6667L13 10.6667L12.9891 7.66671C13.0424 7.66651 13.1472 7.67747 13.2712 7.72861C13.3945 7.77943 13.4698 7.84237 13.4973 7.86961L11.3863 10.0012Z" fill="#050E2C" mask="url(#path-1-inside-1_443_1622)"/>
</svg>
