<svg width="24" height="24" viewBox="0 0 24 24" fill="none" xmlns="http://www.w3.org/2000/svg">
<path d="M11.0596 4.5C14.6819 4.50018 17.618 7.4365 17.6182 11.0586C17.6182 14.6808 14.682 17.617 11.0596 17.6172C7.43698 17.6172 4.5 14.6809 4.5 11.0586C4.50012 7.43639 7.43706 4.5 11.0596 4.5Z" stroke="#F5F7FA"/>
<path d="M18.6464 19.3533C18.8417 19.5486 19.1582 19.5486 19.3535 19.3533C19.5488 19.158 19.5487 18.8414 19.3535 18.6462L18.9999 18.9997L18.6464 19.3533ZM15.647 15.647L15.2934 16.0005L18.6464 19.3533L18.9999 18.9997L19.3535 18.6462L16.0005 15.2934L15.647 15.647Z" fill="#F5F7FA"/>
</svg>
