<svg width="24" height="24" viewBox="0 0 24 24" fill="none" xmlns="http://www.w3.org/2000/svg">
<path fill-rule="evenodd" clip-rule="evenodd" d="M17.5494 8.63069C17.5942 8.34682 17.5625 8.05613 17.4576 7.78856C17.3527 7.521 17.1784 7.28622 16.9527 7.1084C16.7269 6.93059 16.4578 6.81615 16.1731 6.77688C15.8884 6.73762 15.5984 6.77493 15.3329 6.88499L5.9796 10.7515C4.7938 11.2421 4.9676 12.9735 6.2282 13.2177L7.9783 13.5565C8.4634 13.65 8.9672 13.562 9.3907 13.3079L9.9011 13.0032C9.75565 13.2916 9.72296 13.6239 9.80941 13.9351C9.89586 14.2463 10.0952 14.5141 10.3686 14.6862L14.3836 17.203C14.5651 17.3168 14.772 17.3838 14.9858 17.3979C15.1995 17.412 15.4134 17.3728 15.6083 17.2839C15.8032 17.1949 15.9729 17.0589 16.1022 16.8881C16.2316 16.7173 16.3165 16.5171 16.3493 16.3054L17.5494 8.63069ZM11.055 13.5917L14.388 10.3962C14.982 9.82749 14.2626 8.88589 13.5575 9.30719L8.7263 12.1991C8.57557 12.289 8.39704 12.3203 8.2247 12.2871L6.4746 11.9483L15.8268 8.08179C15.8799 8.05981 15.9378 8.05236 15.9947 8.0602C16.0516 8.06803 16.1054 8.09088 16.1505 8.12638C16.1957 8.16189 16.2305 8.20878 16.2515 8.26223C16.2726 8.31567 16.279 8.37375 16.2701 8.43049L15.0711 16.1074L11.055 13.5917Z" fill="#F5F7FA"/>
<path fill-rule="evenodd" clip-rule="evenodd" d="M12 1C5.9247 1 1 5.9247 1 12C1 18.0753 5.9247 23 12 23C18.0753 23 23 18.0753 23 12C23 5.9247 18.0753 1 12 1ZM2.2936 12C2.2936 9.4257 3.31624 6.95684 5.13654 5.13654C6.95684 3.31624 9.4257 2.2936 12 2.2936C14.5743 2.2936 17.0432 3.31624 18.8635 5.13654C20.6838 6.95684 21.7064 9.4257 21.7064 12C21.7064 14.5743 20.6838 17.0432 18.8635 18.8635C17.0432 20.6838 14.5743 21.7064 12 21.7064C9.4257 21.7064 6.95684 20.6838 5.13654 18.8635C3.31624 17.0432 2.2936 14.5743 2.2936 12Z" fill="#F5F7FA"/>
</svg>
