<svg width="24" height="24" viewBox="0 0 24 24" fill="none" xmlns="http://www.w3.org/2000/svg">
<path d="M18.3321 14.0091L14.8808 12.2836C14.7789 12.2329 14.6653 12.21 14.5517 12.2172C14.4381 12.2244 14.3284 12.2615 14.2337 12.3246L12.5425 13.4516C11.6864 13.0133 10.9899 12.3168 10.5516 11.4608L11.6797 9.77088C11.7429 9.67617 11.7799 9.56646 11.7871 9.45286C11.7943 9.33925 11.7714 9.22575 11.7207 9.12382L9.99507 5.67284C9.94141 5.56488 9.85866 5.47404 9.75613 5.41059C9.65361 5.34714 9.53539 5.31359 9.41482 5.31373C8.32785 5.31373 7.28541 5.74548 6.51681 6.51401C5.74821 7.28255 5.31642 8.3249 5.31642 9.41176C5.31927 11.8706 6.29741 14.228 8.03625 15.9667C9.77509 17.7054 12.1327 18.6834 14.5917 18.6863C15.6787 18.6863 16.7212 18.2545 17.4898 17.486C18.2584 16.7175 18.6901 15.6751 18.6901 14.5882C18.6902 14.468 18.6567 14.3501 18.5934 14.2478C18.5302 14.1455 18.4397 14.0628 18.3321 14.0091ZM14.5917 17.3922C12.4758 17.3896 10.4473 16.548 8.9511 15.0519C7.45491 13.5559 6.61322 11.5275 6.61065 9.41176C6.61071 8.73504 6.85553 8.08118 7.29994 7.5708C7.74436 7.06043 8.35837 6.72798 9.02871 6.6348L10.3941 9.36539L9.27353 11.0456C9.21465 11.1342 9.17853 11.236 9.16838 11.3419C9.15822 11.4478 9.17433 11.5546 9.21529 11.6527C9.81034 13.0674 10.9358 14.1927 12.3506 14.7877C12.4488 14.8287 12.5556 14.8448 12.6615 14.8347C12.7674 14.8245 12.8692 14.7884 12.9578 14.7295L14.6381 13.609L17.369 14.9743C17.2758 15.6446 16.9433 16.2585 16.4329 16.7029C15.9225 17.1473 15.2685 17.3921 14.5917 17.3922ZM12.0033 1C10.0962 0.9996 8.2218 1.49492 6.56394 2.43737C4.90607 3.37982 3.5217 4.73702 2.54664 6.37583C1.57158 8.01463 1.03932 9.87874 1.0021 11.7853C0.96487 13.6918 1.42395 15.5753 2.33429 17.2509L1.08104 21.0114C0.992319 21.2774 0.979443 21.5629 1.04386 21.8358C1.10827 22.1087 1.24743 22.3583 1.44574 22.5566C1.64405 22.7549 1.89367 22.894 2.16662 22.9585C2.43957 23.0229 2.72507 23.01 2.99111 22.9213L6.75194 21.6681C8.22411 22.467 9.85927 22.9191 11.5327 22.9901C13.2062 23.0611 14.8738 22.7491 16.4083 22.0778C17.9429 21.4065 19.3039 20.3937 20.3875 19.1166C21.4712 17.8395 22.2488 16.3318 22.6613 14.7086C23.0737 13.0853 23.11 11.3893 22.7674 9.74991C22.4248 8.1105 21.7123 6.57096 20.6843 5.24869C19.6562 3.92642 18.3398 2.85634 16.8354 2.12003C15.331 1.38373 13.6783 1.00065 12.0033 1ZM12.0033 21.7059C10.297 21.7063 8.62072 21.2569 7.14344 20.4031C7.04494 20.3466 6.93347 20.3165 6.81988 20.3158C6.75025 20.3162 6.68111 20.3275 6.61496 20.3492L2.58235 21.6929C2.54435 21.7056 2.50356 21.7075 2.46457 21.6983C2.42557 21.6891 2.38991 21.6692 2.36158 21.6408C2.33325 21.6125 2.31337 21.5769 2.30417 21.5379C2.29497 21.4989 2.29681 21.4581 2.30948 21.4201L3.65333 17.3922C3.6824 17.3051 3.69263 17.2129 3.68334 17.1216C3.67404 17.0303 3.64543 16.942 3.5994 16.8626C2.5287 15.0132 2.09833 12.8622 2.37505 10.7433C2.65177 8.6243 3.62012 6.6559 5.12986 5.14342C6.63961 3.63094 8.60634 2.65895 10.725 2.37823C12.8436 2.09751 14.9956 2.52376 16.8472 3.59086C18.6988 4.65795 20.1465 6.30623 20.9656 8.27999C21.7847 10.2537 21.9294 12.4426 21.3774 14.507C20.8254 16.5715 19.6074 18.396 17.9125 19.6976C16.2176 20.9993 14.1404 21.7052 12.0033 21.7059Z" fill="#F5F7FA"/>
</svg>
