<svg width="37" height="13" viewBox="0 0 37 13" fill="none" xmlns="http://www.w3.org/2000/svg">
<path d="M0.397727 12V10.4773L0.738636 10.4659C1.20076 10.4545 1.56439 10.2973 1.82955 9.99432C2.09848 9.69129 2.29356 9.20265 2.41477 8.52841C2.53977 7.85417 2.62311 6.95455 2.66477 5.82955L2.86364 0.363636H10.2216V12H8.48864V1.85227H4.51705L4.33523 6.29545C4.28599 7.54167 4.16099 8.58902 3.96023 9.4375C3.75947 10.2822 3.41856 10.9205 2.9375 11.3523C2.46023 11.7841 1.7803 12 0.897727 12H0.397727ZM16.3182 12.1761C15.5 12.1761 14.786 11.9886 14.1761 11.6136C13.5663 11.2386 13.0928 10.714 12.7557 10.0398C12.4186 9.36553 12.25 8.57765 12.25 7.67614C12.25 6.77083 12.4186 5.97917 12.7557 5.30114C13.0928 4.62311 13.5663 4.09659 14.1761 3.72159C14.786 3.34659 15.5 3.15909 16.3182 3.15909C17.1364 3.15909 17.8504 3.34659 18.4602 3.72159C19.0701 4.09659 19.5436 4.62311 19.8807 5.30114C20.2178 5.97917 20.3864 6.77083 20.3864 7.67614C20.3864 8.57765 20.2178 9.36553 19.8807 10.0398C19.5436 10.714 19.0701 11.2386 18.4602 11.6136C17.8504 11.9886 17.1364 12.1761 16.3182 12.1761ZM16.3239 10.75C16.8542 10.75 17.2936 10.6098 17.642 10.3295C17.9905 10.0492 18.2481 9.67614 18.4148 9.21023C18.5852 8.74432 18.6705 8.23106 18.6705 7.67045C18.6705 7.11364 18.5852 6.60227 18.4148 6.13636C18.2481 5.66667 17.9905 5.28977 17.642 5.00568C17.2936 4.72159 16.8542 4.57955 16.3239 4.57955C15.7898 4.57955 15.3466 4.72159 14.9943 5.00568C14.6458 5.28977 14.3864 5.66667 14.2159 6.13636C14.0492 6.60227 13.9659 7.11364 13.9659 7.67045C13.9659 8.23106 14.0492 8.74432 14.2159 9.21023C14.3864 9.67614 14.6458 10.0492 14.9943 10.3295C15.3466 10.6098 15.7898 10.75 16.3239 10.75ZM27.8622 3.27273V4.73864H23.9588V12H22.2827V3.27273H27.8622ZM32.9276 12.1761C32.1094 12.1761 31.3954 11.9886 30.7855 11.6136C30.1757 11.2386 29.7022 10.714 29.3651 10.0398C29.0279 9.36553 28.8594 8.57765 28.8594 7.67614C28.8594 6.77083 29.0279 5.97917 29.3651 5.30114C29.7022 4.62311 30.1757 4.09659 30.7855 3.72159C31.3954 3.34659 32.1094 3.15909 32.9276 3.15909C33.7457 3.15909 34.4598 3.34659 35.0696 3.72159C35.6795 4.09659 36.1529 4.62311 36.4901 5.30114C36.8272 5.97917 36.9957 6.77083 36.9957 7.67614C36.9957 8.57765 36.8272 9.36553 36.4901 10.0398C36.1529 10.714 35.6795 11.2386 35.0696 11.6136C34.4598 11.9886 33.7457 12.1761 32.9276 12.1761ZM32.9332 10.75C33.4635 10.75 33.9029 10.6098 34.2514 10.3295C34.5999 10.0492 34.8575 9.67614 35.0241 9.21023C35.1946 8.74432 35.2798 8.23106 35.2798 7.67045C35.2798 7.11364 35.1946 6.60227 35.0241 6.13636C34.8575 5.66667 34.5999 5.28977 34.2514 5.00568C33.9029 4.72159 33.4635 4.57955 32.9332 4.57955C32.3991 4.57955 31.956 4.72159 31.6037 5.00568C31.2552 5.28977 30.9957 5.66667 30.8253 6.13636C30.6586 6.60227 30.5753 7.11364 30.5753 7.67045C30.5753 8.23106 30.6586 8.74432 30.8253 9.21023C30.9957 9.67614 31.2552 10.0492 31.6037 10.3295C31.956 10.6098 32.3991 10.75 32.9332 10.75Z" fill="#F5F7FA"/>
</svg>
